<?xml version="1.0" encoding="utf-8"?><!-- Uploaded to: SVG Repo, www.svgrepo.com, Generator: SVG Repo Mixer Tools -->
<svg version="1.1" id="designs" xmlns="http://www.w3.org/2000/svg" xmlns:xlink="http://www.w3.org/1999/xlink" 
	 width="800px" height="800px" viewBox="0 0 32 32" xml:space="preserve">
<style type="text/css">
	.sketchy_een{fill:#FFFFFF;}
</style>
<path class="sketchy_een" d="M30,15.335c0-0.176-0.068-0.326-0.164-0.453c-0.06-0.205-0.121-0.41-0.159-0.619
	c-0.045-0.46-0.029-0.926,0.023-1.385c0.057-0.382,0.13-0.763,0.137-1.152c0.008-0.428-0.019-0.87-0.12-1.289
	c-0.104-0.428-0.359-0.802-0.654-1.121c-0.291-0.316-0.631-0.602-1.018-0.791c-0.214-0.104-0.434-0.195-0.66-0.27
	c-0.255-0.087-0.523-0.121-0.789-0.154c-0.372-0.046-0.745-0.048-1.121-0.052c-0.393-0.006-0.787-0.021-1.181-0.027
	c-0.106,0-0.212,0-0.316,0c-0.21,0.002-0.421,0.002-0.631-0.006c-0.911-0.029-1.822-0.064-2.733-0.093
	c-0.015-0.264-0.056-0.526-0.091-0.786c-0.048-0.367-0.118-0.733-0.203-1.094c-0.116-0.49-0.289-0.98-0.606-1.377
	c-0.247-0.307-0.613-0.513-0.999-0.59c-0.262-0.052-0.538-0.071-0.806-0.091c-0.147-0.01-0.294-0.014-0.441-0.014
	c-0.244,0-0.487,0.009-0.731,0.012c-0.39,0.004-0.781,0.004-1.173,0.006c-0.82,0.006-1.645,0.023-2.465,0.083
	c-0.442,0.033-0.901,0.106-1.29,0.332c-0.473,0.274-0.799,0.75-0.874,1.292c-0.052,0.372-0.069,0.743-0.067,1.119
	c0,0.327,0.038,0.649,0.084,0.97c-0.713-0.002-1.426-0.002-2.14-0.008C8.362,7.775,7.912,7.767,7.462,7.767
	c-0.361,0-0.723,0.005-1.083,0.02C5.57,7.82,4.746,7.903,3.979,8.183C3.863,8.225,3.74,8.274,3.632,8.328
	c-0.16,0.077-0.284,0.168-0.422,0.278c-0.112,0.089-0.218,0.181-0.32,0.28c-0.26,0.249-0.448,0.554-0.621,0.868
	C2.24,9.805,2.232,9.861,2.215,9.915l0,0.001c-0.021,0.067-0.039,0.131-0.043,0.199c-0.006,0.034-0.02,0.065-0.022,0.1
	c-0.05,0.818-0.079,1.635-0.098,2.455c-0.017,0.727,0,1.454,0.028,2.179C2.031,14.956,2,15.07,2,15.191
	c0,0.461,0.384,0.837,0.843,0.841c0.109,0.001,0.218,0,0.327,0c0,0.016-0.011,0.032-0.009,0.048
	c0.093,0.828,0.193,1.665,0.201,2.498c0.008,0.735,0.058,1.464,0.094,2.199c0.041,0.754,0.098,1.506,0.12,2.263
	c0.017,0.694,0.012,1.389,0.021,2.085c0.008,0.455,0.006,0.91,0.008,1.368c0.001,0.149,0.055,0.281,0.128,0.401
	c0,0.007-0.004,0.013-0.004,0.019c0.006,0.5,0.418,0.871,0.906,0.882c0.911,0.023,1.821,0.022,2.734,0.018
	c0.789-0.004,1.578-0.006,2.369-0.014c0.401-0.005,0.804-0.016,1.205-0.017c0.372-0.003,0.745,0.01,1.117,0.011
	c0.407,0.001,0.812-0.004,1.219,0c0.409,0.002,0.816,0.028,1.225,0.039c0.799,0.023,1.599,0.007,2.4,0.013
	c0.781,0.008,1.563,0.011,2.346,0.027c0.782,0.015,1.565,0.008,2.348,0.029c0.787,0.021,1.575,0.075,2.364,0.073
	c0.629-0.002,1.256,0.04,1.885,0.052c0.677,0.013,1.354-0.011,2.031-0.002c0.444,0.006,0.809-0.388,0.804-0.824
	c-0.001-0.061-0.024-0.116-0.038-0.174c0.01-0.349,0.002-0.695-0.011-1.044c-0.014-0.357-0.021-0.716-0.048-1.073
	c-0.054-0.721-0.067-1.449-0.083-2.172c-0.014-0.729-0.039-1.458-0.06-2.187c-0.012-0.38-0.035-0.762-0.052-1.142
	c-0.017-0.39-0.015-0.777-0.015-1.167c0.002-0.654,0.01-1.306,0.008-1.96c0-0.068-0.023-0.128-0.04-0.191
	c0.173,0.006,0.346,0.008,0.518,0.019c0.138,0.036,0.282,0.05,0.43,0.01c0.01-0.003,0.017-0.011,0.027-0.014
	C29.695,16.067,30,15.701,30,15.335z M12.585,6.122c0.013-0.07,0.03-0.138,0.05-0.206c0.002-0.003,0.004-0.007,0.006-0.01
	c0.011-0.011,0.022-0.022,0.033-0.032c0.025-0.015,0.049-0.03,0.075-0.044c0.137-0.044,0.278-0.075,0.421-0.1
	c0.43-0.043,0.863-0.044,1.295-0.066c0.417-0.019,0.833-0.035,1.25-0.039c0.798-0.007,1.607-0.029,2.4,0.058
	c0.095,0.014,0.189,0.032,0.281,0.059c0.005,0.003,0.01,0.006,0.016,0.009c0.008,0.008,0.016,0.016,0.023,0.024
	c0.031,0.05,0.06,0.101,0.086,0.154c0.13,0.368,0.193,0.764,0.249,1.152c0.029,0.226,0.048,0.453,0.058,0.681
	c0.002,0.042-0.004,0.083-0.004,0.125c-0.076,0-0.153-0.005-0.229-0.005c-0.804,0-1.609,0.008-2.413-0.015
	c-0.781-0.021-1.562-0.081-2.346-0.077c-0.392,0.002-0.785-0.001-1.178-0.002c-0.004-0.041,0-0.078-0.007-0.121
	c-0.016-0.107-0.033-0.215-0.05-0.322C12.555,6.942,12.544,6.529,12.585,6.122z M25.504,26.397
	c-0.355-0.011-0.708-0.039-1.064-0.048c-0.413-0.01-0.826-0.003-1.239-0.013c-0.77-0.015-1.538-0.056-2.306-0.068
	c-0.787-0.009-1.576-0.013-2.363-0.024c-0.772-0.01-1.545-0.015-2.317-0.027c-0.423-0.006-0.843-0.007-1.266-0.029
	c-0.4-0.018-0.799-0.046-1.199-0.066c-0.284-0.014-0.569-0.008-0.853-0.005c-0.12,0.001-0.241,0.003-0.359,0.003
	c-0.39,0.001-0.779-0.012-1.167-0.022c-0.766-0.019-1.534-0.008-2.3-0.01c-0.689-0.003-1.377-0.008-2.064-0.011
	c-0.602-0.004-1.204-0.031-1.805-0.053c0.004-0.553,0.009-1.107,0.011-1.659c0.002-0.727,0.029-1.456-0.01-2.182
	c-0.021-0.38-0.06-0.76-0.081-1.142c-0.021-0.365-0.071-0.727-0.1-1.092c-0.031-0.372-0.029-0.75-0.037-1.123
	c-0.01-0.365-0.025-0.727-0.046-1.09c-0.031-0.553-0.071-1.105-0.129-1.657c-0.002-0.017-0.008-0.031-0.01-0.048
	c0.047,0,0.094,0,0.14,0c0.253,0,0.507,0.008,0.762,0.015c0.175,0.005,0.352,0.005,0.529,0.007c0,0.046,0.002,0.091,0.002,0.137
	c-0.002,0.457-0.019,0.92,0.307,1.285c0.293,0.328,0.779,0.37,1.188,0.37c0.303-0.002,0.611,0.035,0.914,0.054
	c0.311,0.019,0.621,0.037,0.932,0.064c0.152,0.013,0.307,0.035,0.461,0.027c0.307-0.015,0.602-0.094,0.872-0.247
	c0.552-0.314,0.594-0.957,0.616-1.527c-0.004-0.173-0.003-0.347-0.004-0.521c0.647-0.018,1.295-0.028,1.942-0.021
	c0.195,0.002,0.392,0.002,0.588,0.002c0.359-0.002,0.716-0.002,1.074,0.012c0.569,0.023,1.14,0.023,1.707,0.056
	c0.156,0.008,0.309,0.027,0.463,0.021c0.195-0.006,0.388-0.027,0.583-0.019c0.44,0.019,0.806-0.38,0.806-0.804
	c0-0.214-0.087-0.421-0.237-0.571c-0.1-0.1-0.218-0.17-0.355-0.206c-0.137-0.037-0.275-0.038-0.412-0.004
	c-0.152,0.014-0.306,0.019-0.458,0.031c-0.139,0.012-0.28,0.025-0.419,0.031c-0.571,0.025-1.146-0.029-1.717-0.035
	c-0.544-0.008-1.082-0.043-1.624-0.071c-0.569-0.031-1.136-0.05-1.705-0.05c-0.064,0-0.127,0.001-0.191,0.001
	c-0.006-0.189-0.012-0.379-0.016-0.568c-0.008-0.378,0.012-0.826-0.299-1.103c-0.123-0.11-0.257-0.208-0.421-0.249
	c-0.112-0.027-0.23-0.039-0.345-0.05c-0.116-0.014-0.231-0.017-0.349-0.019c-0.064-0.002-0.129-0.004-0.193-0.004
	c-0.22,0-0.44,0.012-0.662,0.015c-0.339,0.006-0.677,0.004-1.015,0.002c-0.237-0.002-0.475-0.004-0.712-0.004
	C7.16,12.09,6.821,12.362,6.72,12.729c-0.303,0.118-0.532,0.415-0.527,0.756C6.2,13.779,6.2,14.074,6.206,14.369
	C5.785,14.38,5.363,14.396,4.94,14.39c-0.459-0.008-0.916-0.018-1.374-0.028c-0.026-0.546-0.054-1.092-0.064-1.638
	c-0.012-0.674,0.022-1.343,0.062-2.013c0.04-0.043,0.088-0.079,0.117-0.133c0.092-0.168,0.181-0.335,0.288-0.492
	c0.084-0.095,0.174-0.18,0.271-0.261c0.051-0.034,0.103-0.065,0.157-0.094C4.791,9.582,5.203,9.474,5.62,9.407
	c0.776-0.086,1.56-0.091,2.34-0.095c0.824-0.006,1.649-0.014,2.475-0.014c0.851,0,1.701,0.017,2.554,0.015
	c0.376,0,0.754-0.004,1.13,0.01c0.415,0.015,0.828,0.037,1.242,0.046c0.783,0.019,1.562,0.05,2.346,0.058
	c0.804,0.008,1.607,0.01,2.411,0.044c0.793,0.035,1.588,0.069,2.378,0.131c0.712,0.056,1.422,0.089,2.133,0.102
	c0.312,0.008,0.625,0.021,0.937,0.035c0.284,0.011,0.57,0.012,0.855,0.04c0.239,0.04,0.47,0.098,0.698,0.182
	c0.131,0.063,0.256,0.135,0.375,0.219c0.151,0.131,0.291,0.271,0.42,0.422c0.05,0.073,0.095,0.149,0.136,0.227
	c0.036,0.114,0.064,0.229,0.085,0.347c0.035,0.327,0.05,0.653,0.017,0.98c-0.047,0.276-0.102,0.55-0.136,0.829
	c-0.033,0.278-0.042,0.559-0.048,0.839c-0.005,0.231,0.024,0.464,0.06,0.695c-0.17,0.002-0.341,0.004-0.512,0.004
	c-0.685,0-1.37,0.006-2.054,0.033c-0.051,0.002-0.096,0.022-0.144,0.032c-0.01-0.254-0.019-0.509-0.036-0.762
	c-0.015-0.23-0.025-0.463-0.079-0.687c-0.102-0.415-0.451-0.727-0.862-0.82c-0.366-0.081-0.748-0.066-1.121-0.048
	c-0.268,0.012-0.534,0.012-0.801,0.01c-0.11,0-0.222,0-0.332,0c-0.272,0.002-0.54-0.01-0.81-0.021
	c-0.135-0.004-0.27-0.01-0.403-0.01c-0.004,0-0.01,0-0.015,0c-0.079,0-0.16,0.008-0.24,0.02c-0.017,0.011-0.035,0.021-0.053,0.032
	c-0.079,0.046-0.162,0.093-0.241,0.143c-0.042,0.04-0.083,0.081-0.122,0.127c-0.048,0.087-0.093,0.176-0.133,0.266
	c-0.01,0.029-0.019,0.058-0.031,0.087c0,0.133,0,0.264-0.002,0.395c-0.004,0.382-0.044,0.762-0.058,1.142
	c-0.004,0.112-0.008,0.224-0.014,0.338c-0.001,0.057-0.004,0.115-0.006,0.172c-0.006,0.194-0.012,0.387-0.024,0.582
	c0,0.012-0.002,0.025-0.002,0.037c0.006,0.146,0.011,0.291,0.015,0.437c0.004,0.13,0.008,0.259,0.009,0.389
	c0.004,0.183,0.008,0.366,0.006,0.55c-0.002,0.095-0.002,0.189-0.006,0.282c-0.001,0.025-0.002,0.051-0.003,0.078
	c0.07,0.335,0.23,0.644,0.533,0.837c0.316,0.201,0.691,0.208,1.051,0.202c0.098,0,0.197,0,0.297,0.002
	c0.147,0,0.295,0.002,0.444-0.006c0.263-0.013,0.519-0.041,0.777-0.075c0.194-0.015,0.391-0.012,0.587-0.008
	c0.133,0.002,0.268,0.004,0.401,0c0.185-0.008,0.39-0.015,0.567-0.069c0.249-0.073,0.413-0.228,0.556-0.434
	c0.118-0.168,0.133-0.434,0.154-0.627c0.036-0.343,0.046-0.69,0.045-1.037c0.032,0.003,0.061,0.019,0.095,0.018
	c0.452-0.021,0.905-0.042,1.358-0.058c-0.018,0.067-0.042,0.133-0.041,0.206c0.019,1.591,0.052,3.183,0.114,4.772
	c0.029,0.739,0.039,1.476,0.062,2.214c0.025,0.714,0.058,1.427,0.094,2.141c0.017,0.328,0.028,0.659,0.032,0.99
	C26.555,26.402,26.028,26.414,25.504,26.397z M9.919,14.712c0.006,0.525,0.012,1.059-0.031,1.584
	c-0.152-0.008-0.305-0.027-0.455-0.035c-0.226-0.014-0.449-0.031-0.675-0.039c-0.23-0.008-0.461-0.008-0.691-0.025
	c-0.077-0.006-0.156-0.004-0.233-0.004c-0.014-0.299-0.012-0.598-0.012-0.897c0-0.5,0-0.997-0.004-1.497
	c0.403-0.023,0.808-0.027,1.211-0.041c0.285-0.01,0.571-0.029,0.856-0.033c0,0.019,0,0.037,0,0.056
	C9.897,14.092,9.915,14.401,9.919,14.712z M22.702,16.739c-0.258,0.029-0.521,0.044-0.781,0.041c-0.091-0.002-0.179,0-0.268,0
	c-0.056,0-0.114,0.002-0.172,0.002c-0.006-0.162-0.006-0.326-0.01-0.488c-0.004-0.268-0.002-0.536-0.002-0.803
	c0.002-0.519-0.004-1.036-0.012-1.553c0.031,0,0.06,0,0.089,0c0.031,0,0.062,0,0.091,0c0.272-0.002,0.544-0.002,0.816-0.012
	c0.411-0.014,0.824-0.064,1.234-0.056c0.041,0.469,0.058,0.939,0.091,1.408c0.033,0.463,0.044,0.934,0.015,1.399
	c-0.056-0.002-0.112-0.004-0.168-0.006C23.314,16.664,23.009,16.694,22.702,16.739z M15.435,17.351
	c-0.035,0.005-0.071,0.009-0.108,0.014c-0.033,0.004-0.067,0.008-0.102,0.013C15.295,17.369,15.366,17.359,15.435,17.351z
	 M19.177,19.224c-0.061-0.016-0.124-0.022-0.188-0.03c-0.244-0.036-0.483-0.074-0.729-0.085c-0.013-0.072-0.028-0.144-0.042-0.216
	c-0.013-0.211-0.004-0.424-0.057-0.631c-0.098-0.38-0.377-0.642-0.713-0.752c-0.164-0.052-0.349-0.05-0.52-0.066
	c-0.286-0.027-0.568-0.06-0.854-0.067c-0.108-0.004-0.218-0.01-0.326-0.021c-0.044-0.005-0.085-0.007-0.126-0.007
	c-0.073,0-0.144,0.007-0.219,0.017c-0.322,0.047-0.705,0.12-0.912,0.405c-0.106,0.147-0.199,0.295-0.228,0.486
	c-0.019,0.112-0.031,0.226-0.04,0.339c-0.007,0.106-0.012,0.212-0.026,0.318c0.004-0.033,0.008-0.066,0.012-0.099
	c-0.006,0.046-0.011,0.092-0.017,0.138c-0.01,0-0.019,0-0.029-0.001c-0.178-0.004-0.357,0-0.537-0.013
	c-0.197-0.015-0.366-0.027-0.567,0.006c-0.242,0.039-0.443,0.23-0.57,0.451c-0.09,0.16-0.109,0.348-0.127,0.531
	c-0.05,0.343-0.13,0.691-0.103,1.039c0.014,0.176,0.033,0.351,0.063,0.523c0.03,0.185,0.11,0.378,0.178,0.546
	c0.059,0.143,0.155,0.264,0.244,0.382c0.187,0.249,0.464,0.326,0.741,0.351c0.119,0.012,0.239-0.006,0.359-0.008
	c0.063-0.001,0.127-0.001,0.191-0.002c0.015,0.242,0.034,0.486,0.058,0.727c0.01,0.104,0.014,0.222,0.047,0.324
	c0.066,0.199,0.085,0.233,0.207,0.395c0.051,0.066,0.12,0.108,0.183,0.162c0.152,0.127,0.389,0.145,0.574,0.152
	c0.195,0.01,0.391,0.008,0.586,0.006c0.126-0.002,0.253-0.002,0.378-0.002c0.201,0.002,0.401-0.002,0.602-0.004
	c0.056,0,0.112,0.002,0.169,0.002c0.084,0.002,0.169,0.004,0.253-0.002c0.293-0.017,0.602-0.158,0.731-0.475
	c0.054-0.137,0.091-0.245,0.112-0.388c0.027-0.19,0.049-0.382,0.064-0.574c0.249-0.02,0.499-0.009,0.75-0.007
	c0.044,0.002,0.085,0.004,0.127,0c0.068-0.006,0.166-0.015,0.241-0.04c0.166-0.058,0.206-0.102,0.34-0.218
	c0.146-0.129,0.228-0.353,0.281-0.544c0.042-0.149,0.094-0.291,0.131-0.442c0.024-0.096,0.031-0.202,0.045-0.303
	c0.021-0.152,0.042-0.305,0.054-0.459c0.012-0.164-0.005-0.332,0.009-0.498c0.005-0.071,0.014-0.145,0.019-0.218
	c0.014-0.21-0.021-0.401-0.101-0.594C19.774,19.473,19.448,19.294,19.177,19.224z M18.555,20.748
	c0.001,0.178-0.008,0.349-0.025,0.523c-0.013,0.083-0.032,0.164-0.054,0.243c-0.096,0.001-0.192,0.001-0.287,0.005
	c-0.208,0.01-0.413,0.021-0.621,0.035c-0.281,0.019-0.535,0.069-0.748,0.297c-0.162,0.172-0.251,0.449-0.223,0.694
	c0.007,0.05,0.01,0.098,0.014,0.149c0.007,0.091,0.009,0.184,0.009,0.277c-0.167-0.006-0.335-0.016-0.502-0.028
	c-0.169-0.011-0.338-0.015-0.506-0.022c-0.002-0.108-0.004-0.217-0.01-0.325c-0.017-0.32-0.165-0.604-0.397-0.756
	c-0.016-0.06-0.038-0.118-0.066-0.172c-0.131-0.247-0.343-0.351-0.589-0.374c-0.243-0.025-0.487-0.026-0.73-0.051
	c-0.008-0.002-0.017-0.003-0.025-0.005c-0.025-0.047-0.047-0.096-0.069-0.146c-0.016-0.055-0.028-0.11-0.038-0.166
	c-0.012-0.163-0.01-0.326,0.001-0.489c0.083,0.004,0.165,0.009,0.245,0.012c0.241,0.01,0.481,0.054,0.724,0.054
	c0.195-0.002,0.357-0.041,0.535-0.129c0.194-0.098,0.359-0.347,0.403-0.577c0.035-0.185,0.024-0.342,0.017-0.525
	c-0.004-0.12-0.003-0.241,0.003-0.361c0.042-0.009,0.084-0.017,0.126-0.025c0.181-0.016,0.36-0.007,0.541,0.018
	c0.122,0.017,0.245,0.035,0.365,0.062c0.048,0.011,0.096,0.02,0.145,0.03c0.008,0.054,0.017,0.109,0.028,0.163
	c0.032,0.143,0.077,0.281,0.102,0.425c0.011,0.109,0.021,0.217,0.036,0.325c0.054,0.43,0.438,0.75,0.823,0.723
	c0.108-0.008,0.216-0.021,0.324-0.027c0.15-0.006,0.304,0.005,0.455,0.022C18.557,20.668,18.555,20.708,18.555,20.748z"/>
</svg>
