<?xml version="1.0" encoding="iso-8859-1"?>
<!-- Uploaded to: SVG Repo, www.svgrepo.com, Generator: SVG Repo Mixer Tools -->
<svg fill="#FFFFFF" version="1.1" id="Layer_1" xmlns="http://www.w3.org/2000/svg" xmlns:xlink="http://www.w3.org/1999/xlink"
	 viewBox="0 0 290.627 290.627" xml:space="preserve">
<g>
	<g>
		<g>
			<path d="M285.938,70.313c-7.753,0-14.063-6.309-14.063-14.063v-4.688H18.75v4.688c0,7.753-6.309,14.063-14.063,14.063H0v150
				h4.688c7.753,0,14.063,6.309,14.063,14.063v4.688h253.125v-4.688c0-7.753,6.309-14.063,14.063-14.063h4.688v-150H285.938z
				 M281.246,84.375h-9.375v9.375h9.375v9.375h-9.375v9.375h9.375v9.375h-9.375v9.375h9.375v9.375h-9.375V150h9.375v9.375h-9.375
				v9.375h9.375v9.375h-9.375v9.375h9.375v9.375h-9.375v9.375h9.375v5.161c-9.165,1.866-16.407,9.108-18.273,18.277H27.652
				c-1.866-9.169-9.108-16.411-18.277-18.277v-5.161h9.375v-9.375H9.375V187.5h9.375v-9.375H9.375v-9.375h9.375v-9.375H9.375V150
				h9.375v-9.375H9.375v-9.375h9.375v-9.375H9.375V112.5h9.375v-9.375H9.375V93.75h9.375v-9.375H9.375v-5.161
				c9.169-1.866,16.411-9.108,18.277-18.277h235.317c1.866,9.169,9.108,16.411,18.277,18.277V84.375z"/>
			<path d="M243.75,75H46.875c-7.753,0-14.063,6.309-14.063,14.063v112.5c0,7.753,6.309,14.063,14.063,14.063H243.75
				c7.753,0,14.063-6.309,14.063-14.063v-112.5C257.813,81.31,251.503,75,243.75,75z M60.939,206.25H46.875
				c-2.588,0-4.687-2.105-4.687-4.687v-112.5c0-2.583,2.1-4.688,4.688-4.688h14.063V206.25z M220.313,206.25h-150V84.375h150V206.25
				z M248.438,201.563c0,2.583-2.1,4.688-4.688,4.688h-14.063V84.375h14.063c2.587,0,4.688,2.105,4.688,4.688V201.563z"/>
			<rect x="84.375" y="117.188" width="121.875" height="9.375"/>
			<rect x="84.375" y="140.625" width="121.875" height="9.375"/>
			<rect x="196.875" y="164.063" width="9.375" height="9.375"/>
			<rect x="84.375" y="164.063" width="103.125" height="9.375"/>
		</g>
	</g>
</g>
</svg>
